<?xml version="1.0" encoding="utf-8"?>
<?xml-stylesheet type="text/xsl" href="rss1.xsl"?>
<rss version="2.0" xmlns:atom="http://www.w3.org/2005/Atom" xmlns:content="http://purl.org/rss/1.0/modules/content/" xmlns:dc="http://purl.org/dc/elements/1.1/" xmlns:media="http://search.yahoo.com/mrss/">
<channel>
 <title>Getty</title>
 <link>http://www.gettyimg.com/</link>
 <atom:link href="http://www.gettyimg.com/" rel="self" type="application/rss+xml" />

 
                <item>
                <title><![CDATA[【Apple Music】WEB-RiP - R.I.O. x KYANU x Nicco – Party Shaker (1080p)]]></title>
                <link><![CDATA[https://sharemania.us/threads/r-i-o-x-kyanu-x-nicco-%E2%80%93-party-shaker-1080p.248758/]]></link>
                <description><![CDATA[<article>
<blockquote class="messageText SelectQuoteContainer ugc baseHtml">
<img src="https://i.postimg.cc/jdFy6tHJ/R-I-O-x-KYANU-x-Nicco-Party-Shaker-mp4.jpg" class="bbCodeImage LbImage" alt="[​IMG]" data-url="https://i.postimg.cc/jdFy6tHJ/R-I-O-x-KYANU-x-Nicco-Party-Shaker-mp4.jpg" style=""><br>
<br>
<div class="bbCodeBlock bbCodeCode">
<div class="type">Code:</div>
<pre>General
Complete name                  : G:\Новая папка\R.I.O. x KYANU x Nicco – Party Shaker.mp4
Format                         : MPEG-4
Format profile                 : Base Media
Codec ID                       : isom (isom/iso2/avc1/mp41)
File size                      : 190 MiB
Duration                       : 2 min 39 s
Overall bit rate               : 9 971 kb/s
Frame rate                     : 25.000 FPS
Movie name                     : Party Shaker
Performer                      : R.I.O., KYANU &amp; Nicco
Genre                          : Dance
ContentType                    : Music Video
Recorded date                  : 2003-04-28 07:00:00 UTC
Writing application            : Lavf56.30.100
Copyright                      : ℗ 2022 Kontor Records GmbH / Playbox Music

Video
ID                             : 1
Format                         : AVC
Format/Info                    : Advanced Video Codec
Format profile                 : High@L4
Format settings                : CABAC / 4 Ref Frames
Format settings, CABAC         : Yes
Format settings, Reference fra : 4 frames
Format settings, Slice count   : 8 slices per frame
Codec ID                       : avc1
Codec ID/Info                  : Advanced Video Coding
Duration                       : 2 min 39 s
Bit rate                       : 9 707 kb/s
Width                          : 1 920 pixels
Height                         : 1 080 pixels
Display aspect ratio           : 16:9
Frame rate mode                : Constant
Frame rate                     : 25.000 FPS
Color space                    : YUV
Chroma subsampling             : 4:2:0
Bit depth                      : 8 bits
Scan type                      : Progressive
Bits/(Pixel*Frame)             : 0.187
Stream size                    : 185 MiB (97%)
Color range                    : Limited
Color primaries                : BT.709
Transfer characteristics       : BT.709
Matrix coefficients            : BT.709
Codec configuration box        : avcC

Audio
ID                             : 2
Format                         : AAC LC
Format/Info                    : Advanced Audio Codec Low Complexity
Codec ID                       : mp4a-40-2
Duration                       : 2 min 39 s
Duration_LastFrame             : -7 ms
Bit rate mode                  : Constant
Bit rate                       : 265 kb/s
Channel(s)                     : 2 channels
Channel layout                 : L R
Sampling rate                  : 48.0 kHz
Frame rate                     : 46.875 FPS (1024 SPF)
Compression mode               : Lossy
Stream size                    : 4.98 MiB (3%)
Default                        : Yes
Alternate group                : 1

</pre>
</div>
<div class="bbCodeBlock bbCodeVfcHH HiddenContent">
<div class="attribution type">Hidden Content:</div>
<blockquote>You must either reply or click 'Like' to see the hidden information contained here.</blockquote>
</div>
<div class="messageTextEndMarker">&nbsp;</div>
</blockquote>
</article>]]></description>
                <author><![CDATA[vitalya3]]></author>
                </item>

                
                <item>
                <title><![CDATA[【Apple Music】WEB-RiP - Viki Gabor - Not Gonna Get It (1080p)]]></title>
                <link><![CDATA[https://sharemania.us/threads/viki-gabor-not-gonna-get-it-1080p.248757/]]></link>
                <description><![CDATA[<article>
<blockquote class="messageText SelectQuoteContainer ugc baseHtml">
<img src="https://i.postimg.cc/vmxSs0zc/Viki-Gabor-Not-Gonna-Get-It-mp4.jpg" class="bbCodeImage LbImage" alt="[​IMG]" data-url="https://i.postimg.cc/vmxSs0zc/Viki-Gabor-Not-Gonna-Get-It-mp4.jpg" style=""><br>
<br>
<div class="bbCodeBlock bbCodeCode">
<div class="type">Code:</div>
<pre>General
Complete name                  : G:\Новая папка\Viki Gabor - Not Gonna Get It.mp4
Format                         : MPEG-4
Format profile                 : Base Media
Codec ID                       : isom (isom/iso2/avc1/mp41)
File size                      : 169 MiB
Duration                       : 3 min 32 s
Overall bit rate               : 6 704 kb/s
Frame rate                     : 25.000 FPS
Movie name                     : Not Gonna Get It
Performer                      : Viki Gabor
Genre                          : Pop
ContentType                    : Music Video
Recorded date                  : 2020-08-21 07:00:00 UTC
Writing application            : Lavf56.30.100
Copyright                      : ℗ 2020 Universal Music Polska

Video
ID                             : 1
Format                         : AVC
Format/Info                    : Advanced Video Codec
Format profile                 : High@L4
Format settings                : CABAC / 5 Ref Frames
Format settings, CABAC         : Yes
Format settings, Reference fra : 5 frames
Format settings, Slice count   : 8 slices per frame
Codec ID                       : avc1
Codec ID/Info                  : Advanced Video Coding
Duration                       : 3 min 32 s
Bit rate                       : 6 445 kb/s
Width                          : 1 912 pixels
Height                         : 796 pixels
Display aspect ratio           : 2.40:1
Frame rate mode                : Constant
Frame rate                     : 25.000 FPS
Color space                    : YUV
Chroma subsampling             : 4:2:0
Bit depth                      : 8 bits
Scan type                      : Progressive
Bits/(Pixel*Frame)             : 0.169
Stream size                    : 163 MiB (96%)
Color range                    : Limited
Color primaries                : BT.709
Transfer characteristics       : BT.709
Matrix coefficients            : BT.709
Codec configuration box        : avcC

Audio
ID                             : 2
Format                         : AAC LC
Format/Info                    : Advanced Audio Codec Low Complexity
Codec ID                       : mp4a-40-2
Duration                       : 3 min 32 s
Duration_LastFrame             : -12 ms
Bit rate mode                  : Constant
Bit rate                       : 254 kb/s
Channel(s)                     : 2 channels
Channel layout                 : L R
Sampling rate                  : 48.0 kHz
Frame rate                     : 46.875 FPS (1024 SPF)
Compression mode               : Lossy
Stream size                    : 6.43 MiB (4%)
Default                        : Yes
Alternate group                : 1

</pre>
</div>
<div class="bbCodeBlock bbCodeVfcHH HiddenContent">
<div class="attribution type">Hidden Content:</div>
<blockquote>You must either reply or click 'Like' to see the hidden information contained here.</blockquote>
</div>
<div class="messageTextEndMarker">&nbsp;</div>
</blockquote>
</article>]]></description>
                <author><![CDATA[vitalya3]]></author>
                </item>

                
                <item>
                <title><![CDATA[【Albums (lossless)】PACK - JoJo @ Discography + Apple Videos [Apple Lossless 16/24 bits 44,1 kHz]]]></title>
                <link><![CDATA[https://sharemania.us/threads/jojo-discography-apple-videos-apple-lossless-16-24-bits-44-1-khz.248761/]]></link>
                <description><![CDATA[<article>
<blockquote class="messageText SelectQuoteContainer ugc baseHtml">
<img src="https://i.ibb.co/Y2cy9k0/53545.jpg" class="bbCodeImage LbImage" alt="[​IMG]" data-url="https://i.ibb.co/Y2cy9k0/53545.jpg" style=""><br>
<img src="https://i.ibb.co/1GtGBGd/1.png" class="bbCodeImage LbImage" alt="[​IMG]" data-url="https://i.ibb.co/1GtGBGd/1.png" style=""><br>
<img src="https://i.ibb.co/vZd3RsG/2.png" class="bbCodeImage LbImage" alt="[​IMG]" data-url="https://i.ibb.co/vZd3RsG/2.png" style=""><br>
<img src="https://i.ibb.co/bX6s9nc/3.png" class="bbCodeImage LbImage" alt="[​IMG]" data-url="https://i.ibb.co/bX6s9nc/3.png" style=""><br>
<img src="https://i.ibb.co/qBXwDGj/4.png" class="bbCodeImage LbImage" alt="[​IMG]" data-url="https://i.ibb.co/qBXwDGj/4.png" style=""><br>
<div class="bbCodeBlock bbCodeVfcHH HiddenContent">
<div class="attribution type">Hidden Content:</div>
<blockquote>You must reply before you can see the hidden data contained here.</blockquote>
</div>
<div class="messageTextEndMarker">&nbsp;</div>
</blockquote>
</article>]]></description>
                <author><![CDATA[itunesboy]]></author>
                </item>

                
                <item>
                <title><![CDATA[【Albums (lossless)】FLAC - Ariana Grande - sweetener  (MQA 24bit/44.1kHz · 1651kbps · Tidal Masters)]]></title>
                <link><![CDATA[https://sharemania.us/threads/ariana-grande-sweetener-mqa-24bit-44-1khz-%C2%B7-1651kbps-%C2%B7-tidal-masters.248763/]]></link>
                <description><![CDATA[<article>
<blockquote class="messageText SelectQuoteContainer ugc baseHtml">
<div style="text-align: center"><span style="font-size: 26px"><span style="color: #ffa64d"><span style="font-family: 'Tahoma'">ɹəuəʇəəʍs </span> </span></span><br>
<img src="https://resources.tidal.com/images/7d5a6343/30ef/41ed/887b/eb1302fb264d/640x640.jpg" class="bbCodeImage LbImage" alt="[​IMG]" data-url="https://resources.tidal.com/images/7d5a6343/30ef/41ed/887b/eb1302fb264d/640x640.jpg" style=""><br>
​</div>
<div class="ToggleTriggerAnchor bbCodeSpoilerContainer">
<button type="button" class="button bbCodeSpoilerButton ToggleTrigger Tooltip JsOnly" data-target="> .SpoilerTarget"><span>Spoiler: <span class="SpoilerTitle">Tracklist</span></span></button>
<div class="SpoilerTarget bbCodeSpoilerText">1. raindrops (an angel cried)<br>
2. blazed - feat. Pharrell Williams<br>
3. the light is coming - feat. Nicki Minaj<br>
4. R.E.M<br>
5. God is a woman<br>
6. sweetener<br>
7. successful<br>
8. everytime<br>
9. breathin<br>
10. no tears left to cry<br>
11. borderline - feat. Missy Elliott<br>
12. better off - Ariana Grande (2:51)<br>
13. goodnight n go<br>
14. pete davidson<br>
15. get well soon</div>
</div><ul>
<li>1 disc(s) - 15 track(s)</li>
<li><b>UPC/Barcode</b>: 00602567995609</li>
<li><b>Total length</b>: 00:47:25</li>
</ul><ul>
<li><b>Main artists</b>: <a href="https://www.qobuz.com/us-en/interpreter/ariana-grande/713899" target="_blank" class="externalLink" rel="nofollow">Ariana Grande</a></li>
<li><b>Composer</b>: <a href="https://www.qobuz.com/us-en/composer/various-composers/573076" target="_blank" class="externalLink" rel="nofollow">Various Composers</a></li>
<li><b>Label</b>: <a href="https://www.qobuz.com/us-en/label/republic-records/download-streaming-albums/32535" target="_blank" class="externalLink" rel="nofollow">Republic Records</a></li>
<li><b>Genre</b>: <a href="https://rateyourmusic.com/genre/contemporary-randb/" target="_blank" class="externalLink" rel="nofollow">Contemporary R&amp;B</a>, <a href="https://rateyourmusic.com/genre/electropop/" target="_blank" class="externalLink" rel="nofollow">Electropop</a>, <a href="https://rateyourmusic.com/genre/dance-pop/" target="_blank" class="externalLink" rel="nofollow">Dance-Pop</a>, <a href="https://rateyourmusic.com/genre/alternative-randb/" target="_blank" class="externalLink" rel="nofollow">Alternative R&amp;B</a>, <a href="https://rateyourmusic.com/genre/pop-soul/" target="_blank" class="externalLink" rel="nofollow">Pop Soul</a></li>
<li>© 2018 Republic Records, a Division of UMG Recordings, Inc.</li>
<li>℗ 2018 Republic Records, a Division of UMG Recordings, Inc.</li>
</ul>
<div class="bbCodeBlock bbCodeVfcHH HiddenContent">
<div class="attribution type">Hidden Content:</div>
<blockquote>You must reply before you can see the hidden data contained here.</blockquote>
</div>
<div class="messageTextEndMarker">&nbsp;</div>
</blockquote>
</article>]]></description>
                <author><![CDATA[Ken_Parker]]></author>
                </item>

                
                <item>
                <title><![CDATA[【Apple Music】WEB-RiP - R.I.O. &amp; KYANU - Good Vibe (1080p)]]></title>
                <link><![CDATA[https://sharemania.us/threads/r-i-o-kyanu-good-vibe-1080p.248762/]]></link>
                <description><![CDATA[<article>
<blockquote class="messageText SelectQuoteContainer ugc baseHtml">
<img src="https://i.postimg.cc/BbcLrfk4/R-I-O-KYANU-Good-Vibe-mp4.jpg" class="bbCodeImage LbImage" alt="[​IMG]" data-url="https://i.postimg.cc/BbcLrfk4/R-I-O-KYANU-Good-Vibe-mp4.jpg" style=""><br>
<br>
<div class="bbCodeBlock bbCodeCode">
<div class="type">Code:</div>
<pre>General
Complete name                  : G:\Новая папка\R.I.O. &amp; KYANU - Good Vibe.mp4
Format                         : MPEG-4
Format profile                 : Base Media
Codec ID                       : isom (isom/iso2/avc1/mp41)
File size                      : 149 MiB
Duration                       : 2 min 5 s
Overall bit rate               : 10.0 Mb/s
Frame rate                     : 25.000 FPS
Movie name                     : Good Vibe
Performer                      : R.I.O. &amp; KYANU
Genre                          : Dance
ContentType                    : Music Video
Recorded date                  : 2022-05-13 07:00:00 UTC
Writing application            : Lavf56.30.100
Copyright                      : ℗ 2022 Kontor Records GmbH / Playbox Music

Video
ID                             : 1
Format                         : AVC
Format/Info                    : Advanced Video Codec
Format profile                 : High@L4
Format settings                : CABAC / 4 Ref Frames
Format settings, CABAC         : Yes
Format settings, Reference fra : 4 frames
Format settings, Slice count   : 8 slices per frame
Codec ID                       : avc1
Codec ID/Info                  : Advanced Video Coding
Duration                       : 2 min 5 s
Bit rate                       : 9 751 kb/s
Width                          : 1 920 pixels
Height                         : 1 080 pixels
Display aspect ratio           : 16:9
Frame rate mode                : Constant
Frame rate                     : 25.000 FPS
Color space                    : YUV
Chroma subsampling             : 4:2:0
Bit depth                      : 8 bits
Scan type                      : Progressive
Bits/(Pixel*Frame)             : 0.188
Stream size                    : 146 MiB (97%)
Color range                    : Limited
Color primaries                : BT.709
Transfer characteristics       : BT.709
Matrix coefficients            : BT.709
Codec configuration box        : avcC

Audio
ID                             : 2
Format                         : AAC LC
Format/Info                    : Advanced Audio Codec Low Complexity
Codec ID                       : mp4a-40-2
Duration                       : 2 min 5 s
Duration_LastFrame             : -4 ms
Bit rate mode                  : Constant
Bit rate                       : 259 kb/s
Channel(s)                     : 2 channels
Channel layout                 : L R
Sampling rate                  : 48.0 kHz
Frame rate                     : 46.875 FPS (1024 SPF)
Compression mode               : Lossy
Stream size                    : 3.87 MiB (3%)
Default                        : Yes
Alternate group                : 1

</pre>
</div>
<div class="bbCodeBlock bbCodeVfcHH HiddenContent">
<div class="attribution type">Hidden Content:</div>
<blockquote>You must either reply or click 'Like' to see the hidden information contained here.</blockquote>
</div>
<div class="messageTextEndMarker">&nbsp;</div>
</blockquote>
</article>]]></description>
                <author><![CDATA[vitalya3]]></author>
                </item>

                
                <item>
                <title><![CDATA[【Albums (lossless)】FLAC - Mike Gordon - Doom (Original Game Soundtrack) [Qobuz 16bits/44.1KHz]]]></title>
                <link><![CDATA[https://sharemania.us/threads/mike-gordon-doom-original-game-soundtrack-qobuz-16bits-44-1khz.248760/]]></link>
                <description><![CDATA[<article>
<blockquote class="messageText SelectQuoteContainer ugc baseHtml">
<div style="text-align: center"><img src="https://i.imgur.com/0ZiJlXd.jpg" class="bbCodeImage LbImage" alt="[​IMG]" data-url="https://i.imgur.com/0ZiJlXd.jpg" style=""> <br>
<img src="https://i.imgur.com/5LG9gnp.png" class="bbCodeImage LbImage" alt="[​IMG]" data-url="https://i.imgur.com/5LG9gnp.png" style=""> <br>
<div class="bbCodeBlock bbCodeVfcHH HiddenContent">
<div class="attribution type">Hidden Content:</div>
<blockquote>You must reply before you can see the hidden data contained here.</blockquote>
</div></div>
<div class="messageTextEndMarker">&nbsp;</div>
</blockquote>
</article>]]></description>
                <author><![CDATA[jase]]></author>
                </item>

                
                <item>
                <title><![CDATA[【Cinema Center】MOVIE - Near.Dark.1987.1080p.ROKU.WEB-DL.AAC2.0.H.264-Samuel]]></title>
                <link><![CDATA[https://sharemania.us/threads/near-dark-1987-1080p-roku-web-dl-aac2-0-h-264-samuel.248759/]]></link>
                <description><![CDATA[<article>
<blockquote class="messageText SelectQuoteContainer ugc baseHtml">
<div style="text-align: center"><b><span style="font-size: 26px">Near Dark</span></b><br>
<img src="https://i.imgur.com/nqg1CWB.jpeg" class="bbCodeImage LbImage" alt="[​IMG]" data-url="https://i.imgur.com/nqg1CWB.jpeg" style=""><br>
<b><a href="https://i.imgur.com/TwAOJ6l.jpeg" target="_blank" class="externalLink" rel="nofollow">Alternate Artwork 1</a></b> | <b><a href="https://i.imgur.com/b68YgCU.jpeg" target="_blank" class="externalLink" rel="nofollow">Alternate Artwork 2</a></b> | <b><a href="https://i.imgur.com/2UjhzrU.jpeg" target="_blank" class="externalLink" rel="nofollow">Poster 1</a></b> | <b><a href="https://i.imgur.com/bUHG0zk.jpeg" target="_blank" class="externalLink" rel="nofollow">Poster 2</a></b> | <b><a href="https://i.imgur.com/PtIMmvN.jpeg" target="_blank" class="externalLink" rel="nofollow">Poster 3</a></b> | <b><a href="https://i.imgur.com/p0BmwVw.jpeg" target="_blank" class="externalLink" rel="nofollow">Thumbnail</a></b> | <b><a href="https://i.imgur.com/VUUAPhz.jpeg" target="_blank" class="externalLink" rel="nofollow">Key Art</a></b><br>
<br>
1987 | R | Classic • Horror • Suspense<br>
Adrian Pasdar, Jenny Wright, Lance Henriksen<br>
<b>Directed By:</b> Kathryn Bigelow<br>
<br>
<div class="bbCodeBlock bbCodeQuote">
<aside>
<blockquote class="quoteContainer"><div class="quote"><b><span style="font-size: 15px">Description</span></b><br>
The lure of romance and adventure leads a bored Oklahoma farmhand into the clutches of a group of modern-day vampires.</div><div class="quoteExpand">Click to expand...</div></blockquote>
</aside>
</div>
<div class="bbCodeBlock bbCodeQuote">
<aside>
<blockquote class="quoteContainer"><div class="quote"><b><span style="font-size: 15px">Trailers</span></b><br>
<span data-s9e-mediaembed="googledrive" style="display:inline-block;width:100%;max-width:640px"><span style="display:block;overflow:hidden;position:relative;padding-bottom:75%"><iframe allowfullscreen="" loading="lazy" scrolling="no" src="//drive.google.com/file/d/1nQZ5Ax5IgR-u_qHTQv8DAwgBbNduRNua/preview" style="border:0;height:100%;left:0;position:absolute;width:100%"></iframe></span></span></div><div class="quoteExpand quoteCut">Click to expand...</div></blockquote>
</aside>
</div>
<div class="bbCodeBlock bbCodeQuote">
<aside>
<blockquote class="quoteContainer"><div class="quote"><b><span style="font-size: 15px">More Information</span></b><br>
<b>Cast:</b> Adrian Pasdar, Jenny Wright, Lance Henriksen, Bill Paxton, Jenette Goldstein, Tim Thomerson, Joshua Miller, Marcie Leeds<br>
<b>Genres:</b> Classic, Horror, Suspense, Westerns<br>
<b>Directors:</b> Kathryn Bigelow<br>
<br>
<b>Captions:</b> English [Closed caption]<br>
<b>Audio track:</b> English (Original)</div><div class="quoteExpand">Click to expand...</div></blockquote>
</aside>
</div>
<div class="bbCodeBlock bbCodeQuote">
<aside>
<blockquote class="quoteContainer"><div class="quote"><span style="font-size: 15px"><b>Source</b></span><br>
<img src="https://i.imgur.com/sxdbEA9.png" class="bbCodeImage LbImage" alt="[​IMG]" data-url="https://i.imgur.com/sxdbEA9.png" style=""></div><div class="quoteExpand">Click to expand...</div></blockquote>
</aside>
</div>
<div class="bbCodeBlock bbCodeQuote">
<aside>
<blockquote class="quoteContainer"><div class="quote"><b><span style="font-size: 15px">Release Name</span></b><br>
Near.Dark.1987.1080p.ROKU.WEB-DL.AAC2.0.H.264-Samuel</div><div class="quoteExpand">Click to expand...</div></blockquote>
</aside>
</div>
<div class="ToggleTriggerAnchor bbCodeSpoilerContainer">
<button type="button" class="button bbCodeSpoilerButton ToggleTrigger Tooltip JsOnly" data-target="> .SpoilerTarget"><span>Spoiler: <span class="SpoilerTitle">Media Information</span></span></button>
<div class="SpoilerTarget bbCodeSpoilerText">General<br>
Complete name : Near.Dark.1987.1080p.ROKU.WEB-DL.AAC2.0.H.264-Samuel.mkv<br>
Format : Matroska<br>
Format version : Version 4<br>
File size : 2.08 GiB<br>
Duration : 1 h 34 min<br>
Overall bit rate mode : Variable<br>
Overall bit rate : 3 159 kb/s<br>
Frame rate : 23.976 FPS<br>
Encoded date : 2024-06-16 11:38:46 UTC<br>
Writing application : mkvmerge v85.0 ('Shame For You') 64-bit<br>
Writing library : libebml v1.4.5 + libmatroska v1.7.1<br>
<br>
Video<br>
ID : 1<br>
Format : AVC<br>
Format/Info : Advanced Video Codec<br>
Format profile : High@L4<br>
Format settings : CABAC / 3 Ref Frames<br>
Format settings, CABAC : Yes<br>
Format settings, Reference frames : 3 frames<br>
Codec ID : V_MPEG4/ISO/AVC<br>
Duration : 1 h 34 min<br>
Bit rate mode : Variable<br>
Bit rate : 3 029 kb/s<br>
Maximum bit rate : 4 172 kb/s<br>
Width : 1 920 pixels<br>
Height : 1 080 pixels<br>
Display aspect ratio : 16:9<br>
Frame rate mode : Constant<br>
Frame rate : 23.976 (24000/1001) FPS<br>
Color space : YUV<br>
Chroma subsampling : 4:2:0<br>
Bit depth : 8 bits<br>
Scan type : Progressive<br>
Bits/(Pixel*Frame) : 0.061<br>
Stream size : 1.99 GiB (96%)<br>
Default : Yes<br>
Forced : No<br>
Color range : Limited<br>
Color primaries : BT.709<br>
Transfer characteristics : BT.709<br>
Matrix coefficients : BT.709<br>
<br>
Audio<br>
ID : 2<br>
Format : AAC LC SBR<br>
Format/Info : Advanced Audio Codec Low Complexity with Spectral Band Replication<br>
Commercial name : HE-AAC<br>
Format settings : Explicit<br>
Codec ID : A_AAC-2<br>
Duration : 1 h 34 min<br>
Bit rate : 128 kb/s<br>
Channel(s) : 2 channels<br>
Channel layout : L R<br>
Sampling rate : 48.0 kHz<br>
Frame rate : 23.438 FPS (2048 SPF)<br>
Compression mode : Lossy<br>
Stream size : 86.3 MiB (4%)<br>
Language : English<br>
Default : Yes<br>
Forced : No<br>
<br>
Text<br>
ID : 3<br>
Format : UTF-8<br>
Codec ID : S_TEXT/UTF8<br>
Codec ID/Info : UTF-8 Plain Text<br>
Duration : 1 h 29 min<br>
Bit rate : 35 b/s<br>
Frame rate : 0.203 FPS<br>
Count of elements : 1096<br>
Stream size : 23.5 KiB (0%)<br>
Title : SDH<br>
Language : English<br>
Default : No<br>
Forced : No</div>
</div><br>
<b>Screenshots</b><br>
<img src="https://i.imgur.com/gcctYPp.png" class="bbCodeImage LbImage" alt="[​IMG]" data-url="https://i.imgur.com/gcctYPp.png" style=""><br>
<b><a href="https://i.imgur.com/AngEG6M.png" target="_blank" class="externalLink" rel="nofollow">View Trailer Screenshot</a></b><br>
<br>
<b>Download</b><br>
<div class="bbCodeBlock bbCodeVfcHH HiddenContent">
<div class="attribution type">Hidden Content:</div>
<blockquote>You must reply before you can see the hidden data contained here.</blockquote>
</div></div>
<div class="messageTextEndMarker">&nbsp;</div>
</blockquote>
</article>]]></description>
                <author><![CDATA[Samuel]]></author>
                </item>

                </channel></rss>